<?xml version="1.0" encoding="UTF-8" standalone="no"?>
<svg
   width="152.18835"
   height="2088.4441"
   viewBox="0 0 40.266502 552.56749"
   xmlns="http://www.w3.org/2000/svg"
   xmlns:svg="http://www.w3.org/2000/svg">
  <g
     id="layer1"
     transform="translate(-81.803212,101.3558)">
    <g
       id="g2753"
       transform="matrix(0.03527778,0,0,-0.03527778,2330.4837,352.74704)">
      <g
         id="g1783"
         transform="matrix(0,-1,-1,0,-58169.045,-58815.371)">
        <path
           d="m -59301.579,6095.2735 c -178,104.9 -285.9,298.1 -281.9,504.3 6.4,323.4 284.6,483.5 296.1,489.8 378.2,-35.7 782.2,-61.3 1209.6,-71.4 491.8,-11.7 954.4,-1.5 1383.7,23 333,-27.7 682.6,-47.9 1047.6,-58 487.8,-13.4 950.1,-7.2 1383.7,12.5 282.2,-15.2 577.7,-24 885.5,-24.4 406.1,-0.4 430.074,-14.2442 792.674,10.5558 136.97,-380.7419 -31.098,-83.5224 145.413,-543.3482 -158.592,-257.0561 -0.05,-427.8717 -386.879,-391.7413 -100.141,9.3533 -202.104,2.8352 -304.608,3.2337 -409.1,1.5 -802.4,-8.1 -1178.5,-26.3 -416.6,35.6 -864.2,58.7 -1339.4,62.5 -390.8,3 -762.7,-7.3 -1113.6,-27.3 -418.2,34.7 -865.7,57.5 -1339.3,62.5 -421.6,4.5 -822.4,-5.6 -1200.1,-25.9"
           style="fill:#666b40;fill-opacity:1;fill-rule:nonzero;stroke:none"
           id="path797"
           clip-path="url(#clipPath1569)"
           transform="translate(-7116.3919,-1534.9081)" />
        <path
           d="m -59300.979,6098.0735 78.5,5.2 79.3,4.8 c 52.9,3.2 105.8,6 158.7,8.4 105.8,5.1 211.7,9.2 317.6,12.5 211.8,6.7 423.8,8.9 635.8,7.5 212,-1.4 424,-6.4 635.9,-15 211.9,-8.8 423.6,-22 635,-38.4 l -3.4,0.1 c 204.5,12.5 409.3,21.5 614.1,26.9 102.5,2.6 204.9,4.4 307.4,5.2 102.5,0.6 205,0.2 307.4,-1 205,-2.4 409.9,-8.7 614.6,-18.4 204.8,-10.3 409.3,-24.2 613.5,-41.7 h -4.1 c 232.3,11.4 464.8,18 697.3,21.6 232.6,3.5 465.2,3.2 697.7,-0.4 232.5,-4 159.718,-14.0172 392.018,-25.6172 151.541,898.3784 -47.755,927.7623 -208.618,922.6172 -170.1,-5.9 -340.2,-8.7 -510.4,-9.9 -170.2,-1.1 -340.3,0.8 -510.5,4.3 -170.1,3.7 -340.2,10.2 -510.2,18.4 h 1.1 c -202.7,-10 -405.5,-17.6 -608.4,-22 -202.9,-4.4 -405.9,-5.3 -608.8,-3.1 -203,2.2 -406,7.7 -608.8,16.6 -202.8,9.5 -405.6,21.7 -607.9,38.6 h 3.6 c -108.2,-6.3 -216.4,-11.5 -324.7,-15.7 -108.2,-4 -216.5,-6.8 -324.8,-8.7 -216.7,-3.6 -433.4,-3.7 -650,1.4 -216.6,5.1 -433.1,13.8 -649.3,27.4 -216.1,13.7 -432.1,31 -647.5,53.4 l 9.5,1.9 c -20.2,-11.4 -40.8,-25.9 -60,-40.7 -19.3,-15 -37.8,-31.1 -55.4,-48.1 -35.1,-34.1 -66.7,-72 -92.9,-113.4 -13,-20.7 -25,-42 -35.4,-64.2 -10.1,-22.2 -19.3,-45 -26.4,-68.4 -14.3,-46.8 -22.3,-95.7 -23.4,-144.9 -2.6,-98.3 21.7,-197.5 69.4,-284.2 23.9,-43.4 53.4,-83.7 87.5,-119.8 8.9,-8.7 17.6,-17.6 26.6,-26.1 l 28.2,-24.4 29.8,-22.5 z m -1.3,-5.7 -33,20.2 -30.9,21.9 c -9.8,7.8 -19.5,15.9 -29.3,23.9 -9.4,8.4 -18.5,17.1 -27.8,25.7 -36,35.6 -67.2,76 -92.6,120 -50.9,87.7 -78.4,189.4 -78,291.5 -0.1,51 7,102.2 20.9,151.5 14.1,49.3 35,96.7 61.7,140.4 26.8,43.8 59.1,84 95.2,120.3 18.1,18.1 37.2,35.2 57.2,51.3 20.2,16.1 40.4,31 63.6,44.7 2.8,1.6 5.9,2.3 8.9,2 h 0.6 c 215.4,-18.3 431,-33.7 646.8,-44.4 215.8,-10.8 431.8,-18.4 647.8,-21.4 216,-2.8 432.1,-2.9 648.1,1.8 108,2.2 215.9,5.6 323.9,9.8 107.9,4 215.8,9 323.6,15.1 1.2,0.1 2.5,0 3.6,-0.1 201.9,-16.6 403.8,-31.6 606.1,-42.6 202.2,-11.9 404.6,-20.4 607.1,-25.7 202.5,-5.2 405.1,-7.5 607.7,-6.3 202.7,1.2 405.3,5.4 607.8,13.9 l 0.1,0.1 1,-0.1 c 169.6,-10.1 339.5,-16.9 509.4,-21.2 170,-4.4 340,-5.5 510,-4.1 170,1.3 339.9,5.9 509.7,12.9 349.981,109.4942 302.138,-645.5595 246.996,-904.6254 -231.4,16.2 152.216,-95.3746 -79.684,-86.1746 -231.8,8.9 -118.712,15.3 -350.712,17.7 -231.9,2.4 -463.9,1.4 -695.8,-3.4 -231.9,-4.5 -463.7,-13.3 -695.4,-24.3 -1.3,-0.1 -2.9,0 -4.1,0.1 -203.6,17.3 -407.4,31 -611.4,41.2 -203.9,10.6 -408.1,17.7 -612.3,21 -102.1,1.7 -204.3,2.5 -306.4,2.4 -102.1,0.1 -204.3,-0.6 -306.4,-2.2 -204.3,-3.4 -408.5,-10.4 -612.5,-20.9 h -0.3 c -1,-0.1 -2.1,0 -3.1,0 -210.7,18.6 -421.8,33.2 -633.1,44.9 -211.2,11.9 -422.7,20.2 -634.2,25 -211.6,4.7 -423.3,5.7 -635,4 -105.8,-0.9 -211.7,-2.8 -317.5,-5.5 l -158.8,-4.6 -159.5,-5.7"
           style="fill:#1e1915;fill-opacity:1;fill-rule:nonzero;stroke:none"
           id="path799"
           clip-path="url(#clipPath1563)"
           transform="translate(-7116.3919,-1534.9081)" />
        <path
           d="m -54250.279,6026.3735 c -29.6,38.4 -53.4,81.7 -72.6,126.4 -88.4,205.4 -90.4,442.7 -25.6,656.7 19.9,65.7 49.1,132.5 91.6,185.5 -2,0.2 -3.9,0.4 -5.9,0.5 -33.8,-1.5 -67.8,-2.9 -101.9,-4.3 -8.4,-14.6 -16,-29.7 -23.2,-44.8 -125.8,-265.6 -172.9,-581.1 -65.9,-854.8 7.7,-19.9 16.5,-39.3 25.8,-58.4 39.8,-3.2 79.5,-6.4 118.8,-9.7 19.5,1 39.3,1.9 58.9,2.9"
           style="fill:#f7be63;fill-opacity:1;fill-rule:nonzero;stroke:none"
           id="path801"
           clip-path="url(#clipPath1557)"
           transform="translate(-7116.3919,-1534.9081)" />
        <path
           d="m -54247.679,6025.1735 c -9.1,-1.3 -18.5,-3.1 -28.8,-5.1 -10.3,-1.9 -21.3,-3.7 -32.3,-5.1 h -1.1 c -39.9,-0.1 -79.7,0.5 -119.4,1.2 -5.6,0.1 -10.4,3.2 -13,7.7 l -1.1,1.9 c -41.8,73.8 -70,155.8 -85.5,239.8 -15.8,84.1 -18.7,170.5 -10.3,255.3 8.8,84.8 28.4,168 55,248.2 l 10.2,30 11.5,29.6 c 7.6,19.7 16.3,38.9 25.1,58.1 8.6,19.2 18.8,37.7 28.3,56.5 4.6,9.3 10.1,18.5 15.5,27.7 l 16,27.5 0.4,0.8 c 2.6,4.3 7.2,6.7 11.9,6.7 17,-0.2 34,-0.4 51,-0.3 17,0 34,-0.1 51,0.2 l 0.5,0.1 1,-0.1 5.9,-0.7 h 0.5 c 5.5,-0.7 9.5,-5.7 8.9,-11.2 -0.3,-2.1 -1.1,-3.9 -2.4,-5.4 -27,-31.6 -47.9,-68.7 -64.2,-107.4 -8.2,-19.4 -15,-39.4 -20.8,-59.6 -5.9,-20.3 -10.3,-41.1 -14.6,-61.7 -16.1,-83.1 -19.8,-167.3 -19.1,-250.3 0.9,-83.1 8.9,-166.3 28.8,-247.2 9,-40.8 22.1,-80.6 36.3,-120.1 7.5,-19.5 15.5,-39 24.6,-58 4.5,-9.5 9.3,-19 14.3,-28.3 l 7.6,-14 4.2,-7.3 c 2,-3.3 3.2,-6.9 4.1,-9.5 z m -5.2,2.4 c -2.3,1.6 -4.3,2.2 -5.6,3.2 -1.3,1.3 -3.5,3.8 -5.2,5.7 -3.6,4 -7.2,8.1 -10.6,12.3 -6.9,8.4 -13.5,17.1 -19.9,25.9 -12.4,17.9 -24,36.4 -34.4,55.6 -5.2,9.6 -10.1,19.4 -14.7,29.3 -4.5,9.8 -9.6,19.6 -13.7,29.7 l -12,30.5 c -4.1,10.2 -7.2,20.6 -10.9,31 -26.9,83.3 -40.3,171.3 -39.4,258.9 0.8,43.8 5.2,87.5 13.3,130.3 8.3,42.9 19,85.1 32,126.4 3,10.4 6.8,20.5 10.2,30.8 3.2,10.3 6.7,20.5 10.4,30.7 7.4,20.3 15.3,40.5 24,60.3 8.8,19.8 18.2,39.4 28.8,58.3 10.9,18.9 22.5,37.4 35.7,54.9 l 7.1,-16.6 -6,0.4 h 1.5 c -17,-1.1 -34,-2.7 -51,-4.1 -16.9,-1.4 -33.9,-3.1 -50.8,-4.7 l 12.2,7.5 -12.5,-27.8 c -4.1,-9.2 -8.3,-18.4 -11.8,-28.1 -7.3,-19.2 -15.2,-38 -21.4,-57.5 l -10.2,-28.9 c -3.4,-9.6 -6.1,-19.5 -9.2,-29.2 l -9.4,-29.1 -8.1,-29.4 c -11.3,-39.1 -20,-78.8 -27.4,-118.6 -3.9,-19.9 -6.3,-40 -9.5,-59.9 -2.3,-20.1 -4.2,-40.2 -6.3,-60.2 -6.5,-80.4 -6,-161.1 3.9,-240.9 10.3,-79.7 29.5,-158.7 61.1,-233.7 l -14,9.6 c 39.5,-5.8 78.9,-11.7 118.2,-18.3 h -1.2 c 8.7,-0.4 17.3,-1.2 26.6,-2.1 9.4,-1 19.6,-1.9 30.2,-2.2"
           style="fill:#1e1915;fill-opacity:1;fill-rule:nonzero;stroke:none"
           id="path803"
           clip-path="url(#clipPath1551)"
           transform="translate(-7116.3919,-1534.9081)" />
        <path
           d="m -56772.979,6912.2735 c 15.9,44 35,87.7 59.3,127.6 -41.7,-2.3 -83.7,-4.5 -126,-6.6 -47.3,-86.8 -82.5,-180.2 -103,-276.9 -48.5,-228.3 -16.3,-472.9 89.7,-680.8 1.7,-3.3 3.5,-6.6 5.2,-10 28.7,-2.2 57.2,-4.5 85.6,-6.9 4.5,0.3 9.1,0.5 13.6,0.8 -111.6,268.4 -123.2,578.9 -24.4,852.8"
           style="fill:#f7be63;fill-opacity:1;fill-rule:nonzero;stroke:none"
           id="path805"
           clip-path="url(#clipPath1545)"
           transform="translate(-7116.3919,-1534.9081)" />
        <path
           d="m -56770.179,6911.2735 c -24.6,-68.2 -38.1,-140.2 -42.7,-212.2 -4.5,-72.1 -2.5,-143.6 1.7,-214.5 4.2,-70.9 13.8,-141.2 28,-210.7 14,-69.4 33.5,-137.9 59.2,-204.2 l 0.5,-1.3 c 5.2,-13.4 -1.4,-28.6 -14.9,-33.8 -2.8,-1.1 -5.8,-1.7 -8.7,-1.8 l -13.6,-0.4 h -1.4 l -2.3,0.1 -42.6,4.6 c -14.2,1.7 -28.4,3 -42.6,4.9 l -2.4,0.3 c -7.6,1 -13.7,5.9 -16.8,12.3 -18.1,39.1 -34,79 -46.3,120 -12.8,40.8 -23.2,82.1 -31.2,123.8 -8.7,41.6 -15.3,83.5 -20,125.5 -5.2,42 -8.1,84.3 -10.2,126.7 l -1.2,32 -0.1,31.9 c -0.3,10.7 0.1,21.4 0.6,32.1 0.5,10.7 0.5,21.4 1.4,32.1 1.6,21.4 3.6,42.8 6.9,64 2.6,21.4 7,42.5 11.8,63.5 19.7,83.9 55,163.9 102.1,235.4 l 1.6,2.4 c 2.9,4.4 7.8,6.8 12.8,6.7 42.1,-1.2 84.3,-3 126.5,-3.4 h 1 c 3.9,0 7.1,-3.2 7.1,-7.2 0,-1.5 -0.5,-2.9 -1.3,-4.1 -13.5,-18.9 -25.2,-39.1 -35.6,-60 -10.5,-21 -19.4,-42.6 -27.3,-64.7 z m -5.5,2 c 8,22.2 16.5,44.1 25.6,65.9 9.1,21.8 19.1,43.3 30,64.6 l 6.8,-11.3 c -41.9,-4.8 -83.7,-11 -125.6,-16.5 l 14.4,9 c -33,-76 -60.8,-153 -83.3,-231.6 -5.5,-19.7 -10.9,-39.5 -15.5,-59.5 -5.3,-19.9 -9.1,-40.1 -13.4,-60.2 -7.5,-40.6 -14,-81.7 -15.9,-123.2 -2.2,-41.4 -1.5,-83.3 3.6,-124.6 1.1,-10.3 2.5,-20.7 4.3,-30.9 1.7,-10.3 3.2,-20.6 5.1,-30.8 4.6,-20.3 8.7,-40.7 14.6,-60.7 5.4,-20 12.2,-39.7 18.9,-59.3 3.6,-9.7 7.5,-19.3 11.3,-29 3.6,-9.6 7.7,-19.1 12,-28.5 16.2,-38.1 36,-74.4 56,-110 l -19.1,12.5 c 14.3,-0.4 28.6,-1.3 42.9,-2 l 43,-2.2 h -3.7 l 13.6,1.1 -23.1,-36.9 c -30.2,68 -54,139 -70.4,211.8 -16.3,72.8 -24.3,147.4 -24.6,221.9 -0.3,74.5 10.3,148.7 27.9,220.4 17.6,71.8 39.8,141.5 64.6,210"
           style="fill:#1e1915;fill-opacity:1;fill-rule:nonzero;stroke:none"
           id="path807"
           clip-path="url(#clipPath1539)"
           transform="translate(-7116.3919,-1534.9081)" />
      </g>
      <g
         id="g1791"
         transform="rotate(90,-58254.416,-3019.7618)">
        <path
           d="m -59301.579,1455.1735 c -178,105 -285.9,298.1 -281.9,504.3 6.4,323.4 284.6,483.5 296.1,489.8 378.2,-35.7 782.2,-61.3 1209.6,-71.4 491.8,-11.7 954.4,-1.5 1383.7,23 333,-27.7 682.6,-47.9 1047.6,-58 487.8,-13.4 995.953,4.4249 1383.7,12.6 -319.452,-182.7273 -249.926,-409.0322 -46.4,-972.1 -416.6,35.7 -864.2,58.8 -1339.4,62.5 -390.8,3 -762.7,-7.3 -1113.6,-27.2 -418.2,34.6 -865.7,57.4 -1339.3,62.5 -421.6,4.4 -822.4,-5.7 -1200.1,-26"
           style="fill:#666b40;fill-opacity:1;fill-rule:nonzero;stroke:none"
           id="path781"
           clip-path="url(#clipPath1617)"
           transform="matrix(1,-0.00352623,0,1,0,-193.14909)" />
        <path
           d="m -59300.979,1457.9735 78.5,5.2 79.3,4.8 c 52.9,3.2 105.8,6 158.7,8.5 105.8,5 211.7,9.2 317.6,12.4 211.8,6.7 423.8,8.9 635.8,7.5 212,-1.4 424,-6.4 635.9,-15 211.9,-8.8 423.6,-21.9 635,-38.4 l -3.4,0.1 c 204.5,12.5 409.3,21.5 614.1,26.9 102.5,2.6 204.9,4.4 307.4,5.2 102.5,0.6 205,0.2 307.4,-1 205,-2.4 409.9,-8.7 614.6,-18.4 204.8,-10.3 409.3,-24.2 613.5,-41.7 l -4.1,0.1 c -178.389,309.0497 -340.26,536.8188 47.3,930.9 h 1.1 c -202.7,-10 -405.5,-17.6 -608.4,-22 -202.9,-4.4 -405.9,-5.3 -608.8,-3.1 -203,2.3 -406,7.8 -608.8,16.6 -202.8,9.5 -405.6,21.7 -607.9,38.6 h 3.6 c -108.2,-6.3 -216.4,-11.5 -324.7,-15.7 -108.2,-4 -216.5,-6.8 -324.8,-8.7 -216.7,-3.5 -433.4,-3.7 -650,1.5 -216.6,5 -433.1,13.7 -649.3,27.3 -216.1,13.8 -432.1,31 -647.5,53.4 l 9.5,2 c -20.2,-11.5 -40.8,-25.9 -60,-40.7 -19.3,-15.1 -37.8,-31.1 -55.4,-48.2 -35.1,-34.1 -66.7,-72 -92.9,-113.4 -13,-20.7 -25,-42 -35.4,-64.2 -10.1,-22.2 -19.3,-45 -26.4,-68.4 -14.3,-46.8 -22.3,-95.7 -23.4,-144.8 -2.6,-98.4 21.7,-197.6 69.4,-284.3 23.9,-43.4 53.4,-83.7 87.5,-119.7 8.9,-8.8 17.6,-17.6 26.6,-26.2 l 28.2,-24.4 29.8,-22.5 z m -1.3,-5.6 -33,20.1 -30.9,21.9 c -9.8,7.8 -19.5,15.9 -29.3,23.9 -9.4,8.4 -18.5,17.2 -27.8,25.8 -36,35.5 -67.2,76 -92.6,119.9 -50.9,87.8 -78.4,189.4 -78,291.5 -0.1,51 7,102.2 20.9,151.5 14.1,49.3 35,96.7 61.7,140.4 26.8,43.9 59.1,84 95.2,120.3 18.1,18.1 37.2,35.3 57.2,51.4 20.2,16 40.4,31 63.6,44.6 2.8,1.7 5.9,2.3 8.9,2 h 0.6 c 215.4,-18.3 431,-33.6 646.8,-44.4 215.8,-10.8 431.8,-18.4 647.8,-21.4 216,-2.8 432.1,-2.9 648.1,1.8 108,2.2 215.9,5.6 323.9,9.8 107.9,4 215.8,9.1 323.6,15.1 1.2,0.1 2.5,0.1 3.6,0 201.9,-16.6 403.8,-31.7 606.1,-42.7 202.2,-11.8 404.6,-20.4 607.1,-25.7 202.5,-5.2 405.1,-7.5 607.7,-6.3 202.7,1.2 405.3,5.5 607.8,14 h 0.1 1 c -398.687,-98.7357 -144.361,-886.317 -150.162,-1002.6202 -213.873,16.5277 -327.304,21.3229 -510.838,30.6202 -203.9,10.6 -408.1,17.8 -612.3,21.1 -102.1,1.6 -204.3,2.5 -306.4,2.3 -102.1,0.2 -204.3,-0.6 -306.4,-2.2 -204.3,-3.4 -408.5,-10.4 -612.5,-20.9 h -0.3 c -1,0 -2.1,0 -3.1,0.1 -210.7,18.5 -421.8,33.1 -633.1,44.8 -211.2,11.9 -422.7,20.2 -634.2,25 -211.6,4.7 -423.3,5.7 -635,4.1 -105.8,-1 -211.7,-2.8 -317.5,-5.6 l -158.8,-4.6 -159.5,-5.6"
           style="fill:#1e1915;fill-opacity:1;fill-rule:nonzero;stroke:none"
           id="path783"
           clip-path="url(#clipPath1611)" />
        <path
           d="m -54250.279,1386.2735 c -29.6,38.4 -53.4,81.7 -72.6,126.4 -88.4,205.4 -90.4,442.7 -25.6,656.7 19.9,65.7 49.1,132.5 91.6,185.5 -2,0.2 -3.9,0.4 -5.9,0.6 -33.8,-1.6 -67.8,-3 -101.9,-4.4 -8.4,-14.6 -16,-29.7 -23.2,-44.8 -125.8,-265.6 -172.9,-581.1 -65.9,-854.8 7.7,-19.8 16.5,-39.2 25.8,-58.4 39.8,-3.1 79.5,-6.4 118.8,-9.7 19.5,1 39.3,1.9 58.9,2.9"
           style="fill:#f7be63;fill-opacity:1;fill-rule:nonzero;stroke:none"
           id="path785"
           clip-path="url(#clipPath1605)" />
        <path
           d="m -54247.679,1385.0735 c -9.1,-1.3 -18.5,-3.1 -28.8,-5.1 -10.3,-1.9 -21.3,-3.7 -32.3,-5.1 l -1.1,0.1 c -39.9,-0.2 -79.7,0.4 -119.4,1.1 -5.6,0.1 -10.4,3.2 -13,7.7 l -1.1,1.9 c -41.8,73.9 -70,155.8 -85.5,239.8 -15.8,84.1 -18.7,170.5 -10.3,255.3 8.8,84.9 28.4,168 55,248.3 l 10.2,30 11.5,29.5 c 7.6,19.7 16.3,38.9 25.1,58.1 8.6,19.2 18.8,37.7 28.3,56.5 4.6,9.4 10.1,18.5 15.5,27.7 l 16,27.5 0.4,0.8 c 2.6,4.3 7.2,6.7 11.9,6.7 17,-0.2 34,-0.4 51,-0.3 17,0.1 34,-0.1 51,0.3 h 0.5 l 1,-0.1 5.9,-0.7 h 0.5 c 5.5,-0.7 9.5,-5.7 8.9,-11.2 -0.3,-2.1 -1.1,-3.9 -2.4,-5.4 -27,-31.6 -47.9,-68.6 -64.2,-107.4 -8.2,-19.4 -15,-39.4 -20.8,-59.6 -5.9,-20.2 -10.3,-41 -14.6,-61.7 -16.1,-83.1 -19.8,-167.3 -19.1,-250.3 0.9,-83.1 8.9,-166.2 28.8,-247.2 9,-40.8 22.1,-80.6 36.3,-120.1 7.5,-19.5 15.5,-39 24.6,-58 4.5,-9.5 9.3,-19 14.3,-28.3 l 7.6,-14 4.2,-7.3 c 2,-3.2 3.2,-6.9 4.1,-9.5 z m -5.2,2.4 c -2.3,1.7 -4.3,2.3 -5.6,3.3 -1.3,1.2 -3.5,3.8 -5.2,5.6 -3.6,4.1 -7.2,8.1 -10.6,12.3 -6.9,8.4 -13.5,17.1 -19.9,25.9 -12.4,17.9 -24,36.4 -34.4,55.6 -5.2,9.6 -10.1,19.4 -14.7,29.3 -4.5,9.9 -9.6,19.6 -13.7,29.7 l -12,30.5 c -4.1,10.2 -7.2,20.6 -10.9,31 -26.9,83.3 -40.3,171.3 -39.4,258.9 0.8,43.8 5.2,87.5 13.3,130.4 8.3,42.8 19,85 32,126.3 3,10.4 6.8,20.5 10.2,30.8 3.2,10.3 6.7,20.5 10.4,30.7 7.4,20.3 15.3,40.5 24,60.3 8.8,19.8 18.2,39.4 28.8,58.4 10.9,18.8 22.5,37.3 35.7,54.8 l 7.1,-16.6 -6,0.4 h 1.5 c -17,-1.1 -34,-2.7 -51,-4.1 -16.9,-1.4 -33.9,-3 -50.8,-4.6 l 12.2,7.4 -12.5,-27.8 c -4.1,-9.2 -8.3,-18.3 -11.8,-28.1 -7.3,-19.2 -15.2,-38 -21.4,-57.5 l -10.2,-28.9 c -3.4,-9.6 -6.1,-19.5 -9.2,-29.2 l -9.4,-29.1 -8.1,-29.4 c -11.3,-39 -20,-78.7 -27.4,-118.6 -3.9,-19.8 -6.3,-39.9 -9.5,-59.9 -2.3,-20.1 -4.2,-40.2 -6.3,-60.2 -6.5,-80.4 -6,-161 3.9,-240.9 10.3,-79.7 29.5,-158.6 61.1,-233.7 l -14,9.6 c 39.5,-5.8 78.9,-11.7 118.2,-18.3 h -1.2 c 8.7,-0.4 17.3,-1.2 26.6,-2.1 9.4,-1 19.6,-1.9 30.2,-2.2"
           style="fill:#1e1915;fill-opacity:1;fill-rule:nonzero;stroke:none"
           id="path787"
           clip-path="url(#clipPath1599)" />
        <path
           d="m -56772.979,2272.1735 c 15.9,44.1 35,87.7 59.3,127.6 -41.7,-2.3 -83.7,-4.5 -126,-6.6 -47.3,-86.8 -82.5,-180.2 -103,-276.9 -48.5,-228.3 -16.3,-472.8 89.7,-680.8 1.7,-3.3 3.5,-6.6 5.2,-10 28.7,-2.2 57.2,-4.5 85.6,-6.8 4.5,0.2 9.1,0.4 13.6,0.7 -111.6,268.4 -123.2,579 -24.4,852.8"
           style="fill:#f7be63;fill-opacity:1;fill-rule:nonzero;stroke:none"
           id="path789"
           clip-path="url(#clipPath1593)" />
        <path
           d="m -56770.179,2271.2735 c -24.6,-68.3 -38.1,-140.3 -42.7,-212.3 -4.5,-72 -2.5,-143.6 1.7,-214.5 4.2,-70.9 13.8,-141.2 28,-210.7 14,-69.4 33.5,-137.9 59.2,-204.2 l 0.5,-1.2 c 5.2,-13.5 -1.4,-28.7 -14.9,-33.9 -2.8,-1.1 -5.8,-1.6 -8.7,-1.7 l -13.6,-0.4 -1.4,-0.1 -2.3,0.1 -42.6,4.7 c -14.2,1.6 -28.4,3 -42.6,4.8 l -2.4,0.3 c -7.6,1 -13.7,5.9 -16.8,12.3 -18.1,39.1 -34,79 -46.3,120 -12.8,40.8 -23.2,82.2 -31.2,123.9 -8.7,41.5 -15.3,83.4 -20,125.4 -5.2,42.1 -8.1,84.3 -10.2,126.8 l -1.2,31.9 -0.1,32 c -0.3,10.7 0.1,21.3 0.6,32 0.5,10.7 0.5,21.4 1.4,32.1 1.6,21.4 3.6,42.8 6.9,64 2.6,21.4 7,42.5 11.8,63.5 19.7,83.9 55,164 102.1,235.4 l 1.6,2.4 c 2.9,4.4 7.8,6.8 12.8,6.7 42.1,-1.2 84.3,-3 126.5,-3.3 h 1 c 3.9,-0.1 7.1,-3.3 7.1,-7.3 0,-1.5 -0.5,-2.9 -1.3,-4.1 -13.5,-18.8 -25.2,-39.1 -35.6,-60 -10.5,-20.9 -19.4,-42.6 -27.3,-64.6 z m -5.5,1.9 c 8,22.2 16.5,44.2 25.6,66 9.1,21.7 19.1,43.3 30,64.5 l 6.8,-11.3 c -41.9,-4.7 -83.7,-11 -125.6,-16.5 l 14.4,9 c -33,-76 -60.8,-152.9 -83.3,-231.6 -5.5,-19.7 -10.9,-39.5 -15.5,-59.5 -5.3,-19.8 -9.1,-40 -13.4,-60.2 -7.5,-40.5 -14,-81.6 -15.9,-123.2 -2.2,-41.4 -1.5,-83.2 3.6,-124.6 1.1,-10.3 2.5,-20.6 4.3,-30.9 1.7,-10.3 3.2,-20.5 5.1,-30.8 4.6,-20.3 8.7,-40.7 14.6,-60.6 5.4,-20.1 12.2,-39.8 18.9,-59.4 3.6,-9.7 7.5,-19.3 11.3,-28.9 3.6,-9.7 7.7,-19.2 12,-28.6 16.2,-38 36,-74.4 56,-110 l -19.1,12.6 c 14.3,-0.5 28.6,-1.4 42.9,-2.1 l 43,-2.2 -3.7,0.1 13.6,1 -23.1,-36.9 c -30.2,68 -54,139 -70.4,211.8 -16.3,72.8 -24.3,147.4 -24.6,221.9 -0.3,74.5 10.3,148.7 27.9,220.4 17.6,71.8 39.8,141.5 64.6,210"
           style="fill:#1e1915;fill-opacity:1;fill-rule:nonzero;stroke:none"
           id="path791"
           clip-path="url(#clipPath1587)" />
      </g>
      <g
         id="g1775"
         transform="rotate(90,-58162.032,6165.8528)">
        <path
           d="m -59301.579,10735.273 c -178,105 -285.9,298.201 -281.9,504.401 6.4,323.399 284.6,483.399 296.1,489.8 378.2,-35.8 782.2,-61.3 1209.6,-71.401 491.8,-11.7 954.4,-1.5 1383.7,23 333,-27.7 682.6,-48 1047.6,-58 487.8,-13.399 950.1,-7.3 1383.7,12.5 282.2,-15.2 577.7,-24.099 885.5,-24.399 406.1,-0.401 791.6,14 1154.2,38.7 233,-341.101 466,-682.3 699,-1023.4 -504.1,37.9 -1040.7,61.2 -1606.6,63.299 -409.1,1.601 -802.4,-8 -1178.5,-26.2 -416.6,35.601 -864.2,58.7 -1339.4,62.401 -390.8,3.099 -762.7,-7.3 -1113.6,-27.201 -418.2,34.701 -865.7,57.5 -1339.3,62.5 -421.6,4.5 -822.4,-5.6 -1200.1,-26"
           style="fill:#666b40;fill-opacity:1;fill-rule:nonzero;stroke:none"
           id="path813"
           clip-path="url(#clipPath1521)" />
        <path
           d="m -59300.979,10738.073 78.5,5.3 79.3,4.8 c 52.9,3.2 105.8,5.9 158.7,8.4 105.8,5.1 211.7,9.2 317.6,12.5 211.8,6.7 423.8,8.9 635.8,7.4 212,-1.4 424,-6.3 635.9,-14.9 211.9,-8.8 423.6,-22 635,-38.4 l -3.4,0.1 c 204.5,12.5 409.3,21.5 614.1,26.8 102.5,2.7 204.9,4.5 307.4,5.3 102.5,0.6 205,0.2 307.4,-1 205,-2.4 409.9,-8.7 614.6,-18.4 204.8,-10.3 409.3,-24.2 613.5,-41.8 l -4.1,0.1 c 232.3,11.4 464.8,18 697.3,21.6 232.6,3.5 465.2,3.2 697.7,-0.399 232.5,-4 464.9,-10.701 697.2,-22.3 232.2,-11.401 464.3,-26.3 696,-44.8 l -19.7,-34.3 -692.1,1028.2 12.1,-5.8 c -169.9,-10.6 -340,-18.2 -510.1,-24 -170.1,-5.9 -340.2,-8.7 -510.4,-9.9 -170.2,-1.1 -340.3,0.8 -510.5,4.3 -170.1,3.7 -340.2,10.2 -510.2,18.3 h 1.1 c -202.7,-9.9 -405.5,-17.5 -608.4,-21.9 -202.9,-4.4 -405.9,-5.3 -608.8,-3.1 -203,2.2 -406,7.7 -608.8,16.6 -202.8,9.5 -405.6,21.7 -607.9,38.6 l 3.6,-0.1 c -108.2,-6.2 -216.4,-11.4 -324.7,-15.7 -108.2,-3.9 -216.5,-6.7 -324.8,-8.6 -216.7,-3.6 -433.4,-3.701 -650,1.4 -216.6,5.1 -433.1,13.7 -649.3,27.399 -216.1,13.701 -432.1,31 -647.5,53.3 l 9.5,2 c -20.2,-11.399 -40.8,-25.899 -60,-40.7 -19.3,-15 -37.8,-31.1 -55.4,-48.1 -35.1,-34.2 -66.7,-72 -92.9,-113.4 -13,-20.7 -25,-42 -35.4,-64.2 -10.1,-22.3 -19.3,-45 -26.4,-68.4 -14.3,-46.799 -22.3,-95.7 -23.4,-144.9 -2.6,-98.3 21.7,-197.5 69.4,-284.3 23.9,-43.3 53.4,-83.7 87.5,-119.7 8.9,-8.7 17.6,-17.6 26.6,-26.1 l 28.2,-24.4 29.8,-22.5 z m -1.3,-5.599 -33,20.099 -30.9,21.901 c -9.8,7.899 -19.5,16 -29.3,23.899 -9.4,8.4 -18.5,17.2 -27.8,25.8 -36,35.6 -67.2,76 -92.6,120 -50.9,87.7 -78.4,189.4 -78,291.5 -0.1,51 7,102.2 20.9,151.5 14.1,49.3 35,96.7 61.7,140.4 26.8,43.8 59.1,84 95.2,120.3 18.1,18.1 37.2,35.2 57.2,51.3 20.2,16.1 40.4,31 63.6,44.7 2.8,1.6 5.9,2.3 8.9,2 h 0.6 c 215.4,-18.3 431,-33.7 646.8,-44.4 215.8,-10.8 431.8,-18.4 647.8,-21.4 216,-2.9 432.1,-2.9 648.1,1.8 108,2.2 215.9,5.6 323.9,9.8 107.9,4 215.8,9 323.6,15.1 1.2,0 2.5,0 3.6,-0.1 201.9,-16.6 403.8,-31.7 606.1,-42.6 202.2,-11.9 404.6,-20.4 607.1,-25.7 202.5,-5.2 405.1,-7.6 607.7,-6.3 202.7,1.1 405.3,5.4 607.8,13.9 h 0.1 1 c 169.6,-10.1 339.5,-17 509.4,-21.2 170,-4.5 340,-5.5 510,-4.1 170,1.3 339.9,5.9 509.7,12.8 169.9,7 339.6,17.4 509,29.9 4.9,0.4 9.4,-1.9 12,-5.7 l 0.1,-0.1 706,-1018.7 c 6.9,-9.9 4.4,-23.6 -5.5,-30.4 -4.3,-3 -9.2,-4.2 -14,-3.9 h -0.3 c -231.4,16.3 -463.1,29 -695,38.1 -231.8,9 -463.7,15.4 -695.7,17.8 -231.9,2.3 -463.9,1.4 -695.8,-3.4 -231.9,-4.5 -463.7,-13.4 -695.4,-24.3 -1.3,-0.1 -2.9,-0.1 -4.1,0 -203.6,17.4 -407.4,31.1 -611.4,41.2 -203.9,10.6 -408.1,17.8 -612.3,21.1 -102.1,1.7 -204.3,2.5 -306.4,2.4 -102.1,0.1 -204.3,-0.6 -306.4,-2.3 -204.3,-3.3 -408.5,-10.3 -612.5,-20.8 h -0.3 c -1,-0.1 -2.1,0 -3.1,0 -210.7,18.6 -421.8,33.2 -633.1,44.9 -211.2,11.9 -422.7,20.2 -634.2,25 -211.6,4.7 -423.3,5.7 -635,4 -105.8,-0.9 -211.7,-2.8 -317.5,-5.5 l -158.8,-4.6 -159.5,-5.7"
           style="fill:#1e1915;fill-opacity:1;fill-rule:nonzero;stroke:none"
           id="path815"
           clip-path="url(#clipPath1515)" />
        <path
           d="m -54250.279,10666.474 c -29.6,38.399 -53.4,81.7 -72.6,126.299 -88.4,205.5 -90.4,442.8 -25.6,656.8 19.9,65.7 49.1,132.5 91.6,185.5 -2,0.2 -3.9,0.4 -5.9,0.5 -33.8,-1.5 -67.8,-2.9 -101.9,-4.3 -8.4,-14.7 -16,-29.799 -23.2,-44.9 -125.8,-265.5 -172.9,-581 -65.9,-854.8 7.7,-19.8 16.5,-39.2 25.8,-58.3 39.8,-3.2 79.5,-6.399 118.8,-9.7 19.5,1 39.3,1.901 58.9,2.901"
           style="fill:#f7be63;fill-opacity:1;fill-rule:nonzero;stroke:none"
           id="path817"
           clip-path="url(#clipPath1509)" />
        <path
           d="m -54247.679,10665.174 c -9.1,-1.2 -18.5,-3.101 -28.8,-5.101 -10.3,-1.8 -21.3,-3.599 -32.3,-5 h -1.1 c -39.9,-0.1 -79.7,0.401 -119.4,1.2 -5.6,0.101 -10.4,3.201 -13,7.701 l -1.1,1.9 c -41.8,73.8 -70,155.8 -85.5,239.8 -15.8,84.099 -18.7,170.5 -10.3,255.3 8.8,84.799 28.4,167.899 55,248.2 l 10.2,30 11.5,29.599 c 7.6,19.701 16.3,38.901 25.1,58.101 8.6,19.2 18.8,37.7 28.3,56.399 4.6,9.401 10.1,18.601 15.5,27.8 l 16,27.5 0.4,0.7 c 2.6,4.401 7.2,6.8 11.9,6.8 17,-0.2 34,-0.399 51,-0.3 17,0 34,-0.2 51,0.201 h 0.5 1 l 5.9,-0.701 0.5,-0.1 c 5.5,-0.601 9.5,-5.601 8.9,-11.2 -0.3,-2 -1.1,-3.901 -2.4,-5.3 -27,-31.7 -47.9,-68.7 -64.2,-107.401 -8.2,-19.399 -15,-39.399 -20.8,-59.7 -5.9,-20.2 -10.3,-41 -14.6,-61.599 -16.1,-83.101 -19.8,-167.3 -19.1,-250.3 0.9,-83.101 8.9,-166.3 28.8,-247.3 9,-40.7 22.1,-80.5 36.3,-120 7.5,-19.601 15.5,-39 24.6,-58 4.5,-9.601 9.3,-19 14.3,-28.3 l 7.6,-14 4.2,-7.3 c 2,-3.3 3.2,-7 4.1,-9.6 z m -5.2,2.5 c -2.3,1.599 -4.3,2.2 -5.6,3.2 -1.3,1.3 -3.5,3.8 -5.2,5.7 -3.6,4 -7.2,8.1 -10.6,12.3 -6.9,8.399 -13.5,17.1 -19.9,25.899 -12.4,17.8 -24,36.401 -34.4,55.601 -5.2,9.6 -10.1,19.399 -14.7,29.2 -4.5,9.9 -9.6,19.6 -13.7,29.8 l -12,30.5 c -4.1,10.1 -7.2,20.6 -10.9,30.899 -26.9,83.401 -40.3,171.3 -39.4,259 0.8,43.8 5.2,87.401 13.3,130.3 8.3,42.901 19,85 32,126.401 3,10.399 6.8,20.5 10.2,30.799 3.2,10.3 6.7,20.5 10.4,30.701 7.4,20.299 15.3,40.5 24,60.299 8.8,19.701 18.2,39.3 28.8,58.3 10.9,18.9 22.5,37.4 35.7,54.9 l 7.1,-16.6 -6,0.4 1.5,-0.1 c -17,-1 -34,-2.6 -51,-4 -16.9,-1.4 -33.9,-3.1 -50.8,-4.7 l 12.2,7.5 -12.5,-27.8 c -4.1,-9.3 -8.3,-18.4 -11.8,-28.1 -7.3,-19.2 -15.2,-38 -21.4,-57.6 l -10.2,-28.9 c -3.4,-9.5 -6.1,-19.4 -9.2,-29.1 l -9.4,-29.1 -8.1,-29.4 c -11.3,-39.1 -20,-78.8 -27.4,-118.6 -3.9,-19.9 -6.3,-40 -9.5,-59.9 -2.3,-20.1 -4.2,-40.2 -6.3,-60.2 -6.5,-80.4 -6,-161.1 3.9,-240.9 10.3,-79.7 29.5,-158.7 61.1,-233.7 l -14,9.5 c 39.5,-5.7 78.9,-11.6 118.2,-18.2 h -1.2 c 8.7,-0.4 17.3,-1.2 26.6,-2.1 9.4,-1.1 19.6,-1.9 30.2,-2.2"
           style="fill:#1e1915;fill-opacity:1;fill-rule:nonzero;stroke:none"
           id="path819"
           clip-path="url(#clipPath1503)" />
        <path
           d="m -56772.979,11552.374 c 15.9,44 35,87.6 59.3,127.6 -41.7,-2.4 -83.7,-4.5 -126,-6.6 -47.3,-86.8 -82.5,-180.2 -103,-276.9 -48.5,-228.3 -16.3,-472.9 89.7,-680.8 1.7,-3.3 3.5,-6.7 5.2,-10 28.7,-2.2 57.2,-4.5 85.6,-6.9 4.5,0.3 9.1,0.5 13.6,0.7 -111.6,268.5 -123.2,579 -24.4,852.9"
           style="fill:#f7be63;fill-opacity:1;fill-rule:nonzero;stroke:none"
           id="path821"
           clip-path="url(#clipPath1497)" />
        <path
           d="m -56770.179,11551.374 c -24.6,-68.3 -38.1,-140.3 -42.7,-212.2 -4.5,-72.101 -2.5,-143.601 1.7,-214.5 4.2,-70.901 13.8,-141.3 28,-210.7 14,-69.401 33.5,-137.901 59.2,-204.201 l 0.5,-1.299 c 5.2,-13.5 -1.4,-28.601 -14.9,-33.8 -2.8,-1.101 -5.8,-1.7 -8.7,-1.8 l -13.6,-0.4 h -1.4 l -2.3,0.1 -42.6,4.6 c -14.2,1.6 -28.4,3 -42.6,4.9 l -2.4,0.3 c -7.6,1 -13.7,5.899 -16.8,12.2 -18.1,39.2 -34,79.1 -46.3,120 -12.8,40.9 -23.2,82.2 -31.2,123.9 -8.7,41.5 -15.3,83.4 -20,125.5 -5.2,42 -8.1,84.299 -10.2,126.7 l -1.2,31.9 -0.1,32 c -0.3,10.7 0.1,21.4 0.6,32.1 0.5,10.6 0.5,21.4 1.4,32.1 1.6,21.3 3.6,42.7 6.9,64 2.6,21.4 7,42.5 11.8,63.5 19.7,83.8 55,163.9 102.1,235.4 l 1.6,2.3 c 2.9,4.5 7.8,6.9 12.8,6.7 42.1,-1.1 84.3,-2.9 126.5,-3.3 h 1 c 3.9,0 7.1,-3.2 7.1,-7.2 0,-1.5 -0.5,-2.9 -1.3,-4.1 -13.5,-18.9 -25.2,-39.1 -35.6,-60 -10.5,-21 -19.4,-42.7 -27.3,-64.7 z m -5.5,2 c 8,22.1 16.5,44.1 25.6,65.899 9.1,21.8 19.1,43.3 30,64.601 l 6.8,-11.4 c -41.9,-4.701 -83.7,-10.9 -125.6,-16.4 l 14.4,9 c -33,-76 -60.8,-153 -83.3,-231.7 -5.5,-19.7 -10.9,-39.4 -15.5,-59.4 -5.3,-19.9 -9.1,-40.1 -13.4,-60.3 -7.5,-40.5 -14,-81.6 -15.9,-123.1 -2.2,-41.5 -1.5,-83.3 3.6,-124.6 1.1,-10.4 2.5,-20.701 4.3,-30.9 1.7,-10.3 3.2,-20.6 5.1,-30.8 4.6,-20.3 8.7,-40.7 14.6,-60.7 5.4,-20 12.2,-39.7 18.9,-59.3 3.6,-9.7 7.5,-19.3 11.3,-29 3.6,-9.7 7.7,-19.2 12,-28.6 16.2,-38 36,-74.3 56,-110 l -19.1,12.6 c 14.3,-0.4 28.6,-1.3 42.9,-2 l 43,-2.2 h -3.7 l 13.6,1 -23.1,-36.8 c -30.2,68 -54,139 -70.4,211.8 -16.3,72.8 -24.3,147.4 -24.6,221.8 -0.3,74.6 10.3,148.8 27.9,220.5 17.6,71.8 39.8,141.5 64.6,210"
           style="fill:#1e1915;fill-opacity:1;fill-rule:nonzero;stroke:none"
           id="path823"
           clip-path="url(#clipPath1491)" />
        <path
           d="m -51544.579,10629.474 c 27.5,-7.401 61.5,-5.201 76.1,54 18.8,75.7 -11.6,163 -39.8,214.599 -192.1,351.601 -412.9,595.8 -646.8,737.3 -98.1,59.3 -176.5,-69.7 -80.9,-280.8 88.1,-194.3 195.3,-348.3 303.4,-466.8 122.4,-134.299 253.7,-222.399 388,-258.299"
           style="fill:#f4ac45;fill-opacity:1;fill-rule:nonzero;stroke:none"
           id="path825"
           clip-path="url(#clipPath1485)" />
        <path
           d="m -51545.379,10626.674 c -110.9,29.899 -214.8,85.3 -307.8,155.8 -22.8,18.099 -45.7,36.399 -66.8,56.5 -10.9,9.799 -21.1,20.2 -31.6,30.299 -10,10.6 -20.2,20.9 -29.9,31.8 -39.6,42.7 -75.7,88.4 -109.5,135.8 -67.2,95 -122.9,197.7 -168.8,304.1 -23.5,54.4 -41.4,113.1 -42.4,175 -0.4,30.8 3.7,62.8 17.9,92.9 7.3,14.8 17.2,29.5 31.7,40.3 7.1,5.5 15.4,9.7 24,12.7 8.7,2.5 17.8,4.2 26.6,3.7 17.9,-0.4 33.9,-6.7 47.6,-14.7 7.2,-4.1 12.5,-8.3 18.6,-12.4 l 17.9,-12.2 c 12.1,-8 23.5,-16.8 35.1,-25.4 11.7,-8.4 23.3,-16.9 34.5,-26 45.7,-35 89,-73 131.5,-111.7 84.8,-77.4 166.5,-159.7 238.3,-250.4 35.2,-45.8 68.8,-92.9 98.5,-142.4 7.5,-12.4 15,-24.7 22.2,-37.2 l 20.6,-38.1 c 14.3,-25 26.1,-51.4 38.9,-77.2 26.2,-52.9 41.9,-111.8 42.6,-170.5 -0.1,-14.7 -1.1,-29.4 -3.7,-43.9 -2.7,-14.4 -6,-28.7 -12.3,-42.2 -6.2,-13.3 -15.5,-26.5 -29.7,-33 -14,-6.7 -30,-5.5 -44,-1.599 z m 1.5,5.599 c 13.3,-3.599 27.8,-4.5 39.9,1.601 11.9,6 20.1,17.8 25.1,30.5 5.1,12.7 7.6,26.7 8.9,40.5 1.5,13.899 1,27.899 -0.6,41.7 -2.9,27.7 -10.5,54.7 -20.9,80.4 -10.5,25.9 -23.3,49.7 -39.1,73.1 -30.7,48 -61.5,95.6 -92.7,142.8 -30.8,47.6 -62.4,94.399 -94,141.399 -64.3,92.8 -130.6,186 -212.4,265.3 -40.6,39.8 -84,76.8 -130.4,109.5 -11.3,8.5 -23.2,16.3 -35,24.101 -11.9,7.7 -23.7,15.5 -36.1,22.5 l -18.3,10.7 c -6.1,3.399 -12.5,7.399 -18,9.899 -11.4,5.3 -23.3,8.5 -34.2,7.601 -22,-1 -38.2,-18.2 -46.4,-40.8 -4.2,-11.2 -6.6,-23.6 -7.7,-36.3 -1.3,-12.7 -1.2,-25.7 0,-38.8 4.5,-52.6 22.1,-105 45.8,-154.3 24.4,-50.9 50.8,-100.7 79.2,-149.2 28.5,-48.4 58.1,-96.3 90.4,-142.2 15.7,-23.3 32.5,-45.8 49.1,-68.4 17,-22.4 34.2,-44.6 51.9,-66.4 17.8,-21.8 35.9,-43.3 54.3,-64.4 18.5,-21 37.6,-41.6 57.3,-61.7 39.7,-39.7 82.2,-77.5 129.7,-108.3 47.3,-31.2 99.3,-55.8 154.2,-70.8"
           style="fill:#1e1915;fill-opacity:1;fill-rule:nonzero;stroke:none"
           id="path827"
           clip-path="url(#clipPath1479)" />
      </g>
    </g>
  </g>
</svg>
