<?xml version="1.0" encoding="UTF-8"?>
<!-- Created with Inkscape (http://www.inkscape.org/) -->
<svg width="1282.2" height="599.53" version="1.1" viewBox="0 0 1282.2 599.53" xmlns="http://www.w3.org/2000/svg">
 <g transform="matrix(1.3333 0 0 -1.3333 -100.99 1533.8)">
  <g>
   <path d="m111.15 863.64h696.41v286.69h-696.41z" fill="#b2e6fa"/>
   <path d="m1025.8 946.74s10.72-4.233 11.57-12.98v-94.246l-11.85-12.98-21.45 27.089 21.73 93.117" fill="#c93422"/>
   <path d="m1023.6 864.35h-932.3v-77.88h932.3v77.88" fill="#55515f"/>
   <path d="m1023.6 798.88h-932.3v-12.416h932.3v12.416" fill="#3b3842"/>
   <path d="m104.45 841.21h-13.192v-85.499h13.192v85.499" fill="#55515f"/>
   <path d="m987.62 1049.4h-164.39v-189.92l74.917-0.12c49.098-0.846 64.545-36.259 64.545-36.259h63.137v123.59l-38.205 102.71" fill="#f1461d"/>
   <path d="m896.02 971.57h110.33l-25.405 68.278h-84.923v-68.278" fill="#b2e6fa"/>
   <path d="m823.22 1049.3h181.36c-7.049 25.98-34.629 30.9-34.629 30.9h-146.73v-30.9" fill="#c93422"/>
   <path d="m955.84 772.36c0 39.584-32.089 71.672-71.672 71.672-39.584 0-71.673-32.088-71.673-71.672 0-39.583 32.089-71.672 71.673-71.672 39.583 0 71.672 32.089 71.672 71.672" fill="#2c2931"/>
   <path d="m884.17 734.83c-20.727 0-37.53 16.802-37.53 37.529s16.803 37.529 37.53 37.529c20.726 0 37.529-16.802 37.529-37.529s-16.803-37.529-37.529-37.529zm0 84.37c-25.87 0-46.841-20.971-46.841-46.841 0-25.869 20.971-46.841 46.841-46.841 25.869 0 46.84 20.972 46.84 46.841 0 25.87-20.971 46.841-46.84 46.841" fill="#fff"/>
   <path d="m884.17 809.89c-20.727 0-37.53-16.802-37.53-37.529s16.803-37.529 37.53-37.529c20.726 0 37.529 16.802 37.529 37.529s-16.803 37.529-37.529 37.529" fill="#55515f"/>
   <path d="m899.83 772.36c0 8.649-7.011 15.661-15.66 15.661-8.65 0-15.661-7.012-15.661-15.661s7.011-15.66 15.661-15.66c8.649 0 15.66 7.011 15.66 15.66" fill="#fff"/>
   <path d="m468.81 772.36c0 39.584-32.089 71.672-71.672 71.672-39.584 0-71.672-32.088-71.672-71.672 0-39.583 32.088-71.672 71.672-71.672 39.583 0 71.672 32.089 71.672 71.672" fill="#2c2931"/>
   <path d="m397.14 734.83c-20.727 0-37.529 16.802-37.529 37.529s16.802 37.529 37.529 37.529 37.529-16.802 37.529-37.529-16.802-37.529-37.529-37.529zm0 84.37c-25.87 0-46.841-20.971-46.841-46.841 0-25.869 20.971-46.841 46.841-46.841 25.869 0 46.841 20.972 46.841 46.841 0 25.87-20.972 46.841-46.841 46.841" fill="#fff"/>
   <path d="m397.14 809.89c-20.727 0-37.529-16.802-37.529-37.529s16.802-37.529 37.529-37.529 37.529 16.802 37.529 37.529-16.802 37.529-37.529 37.529" fill="#55515f"/>
   <path d="m412.8 772.36c0 8.649-7.012 15.661-15.661 15.661s-15.661-7.012-15.661-15.661 7.012-15.66 15.661-15.66 15.661 7.011 15.661 15.66" fill="#fff"/>
   <path d="m280.88 772.36c0 39.584-32.089 71.672-71.672 71.672-39.584 0-71.672-32.088-71.672-71.672 0-39.583 32.088-71.672 71.672-71.672 39.583 0 71.672 32.089 71.672 71.672" fill="#2c2931"/>
   <path d="m209.21 734.83c-20.727 0-37.529 16.802-37.529 37.529s16.802 37.529 37.529 37.529 37.529-16.802 37.529-37.529-16.802-37.529-37.529-37.529zm0 84.37c-25.87 0-46.841-20.971-46.841-46.841 0-25.869 20.971-46.841 46.841-46.841 25.869 0 46.841 20.972 46.841 46.841 0 25.87-20.972 46.841-46.841 46.841" fill="#fff"/>
   <path d="m209.21 809.89c-20.727 0-37.529-16.802-37.529-37.529s16.802-37.529 37.529-37.529 37.529 16.802 37.529 37.529-16.802 37.529-37.529 37.529" fill="#55515f"/>
   <path d="m224.87 772.36c0 8.649-7.011 15.661-15.66 15.661s-15.661-7.012-15.661-15.661 7.012-15.66 15.661-15.66 15.66 7.011 15.66 15.66" fill="#fff"/>
  </g>
  <g fill="#3b3842">
   <path d="m884.17 858.43c-46.512 0-84.5-37.093-85.998-83.249h14.469c1.499 38.207 32.961 68.851 71.529 68.851 38.567 0 70.029-30.644 71.528-68.851h14.469c-1.498 46.156-39.486 83.249-85.997 83.249"/>
   <path d="m397.14 858.43c-46.512 0-84.499-37.093-85.997-83.249h14.469c1.498 38.207 32.961 68.851 71.528 68.851 38.568 0 70.032-30.644 71.531-68.851h14.468c-1.498 46.156-39.485 83.249-85.999 83.249"/>
   <path d="m209.21 858.43c-46.512 0-84.499-37.093-85.997-83.249h14.468c1.494 38.265 32.899 68.851 71.53 68.851s70.036-30.586 71.53-68.851h14.468c-1.498 46.156-39.485 83.249-85.999 83.249"/>
  </g>
  <g>
   <path d="m896.02 1039.8v-68.278l84.923 68.278z" fill="#96ddf8"/>
   <path d="m823.36 896.58h202.39v1h-202.39z" fill="#c93422"/>
   <path d="m881.41 859.83h1v193.22h-1z" fill="#c93422"/>
   <path d="m933.7 918.52c0 3.156-2.842 5.714-6.348 5.714h-23.155c-3.507 0-6.349-2.558-6.349-5.714 0-3.155 2.842-5.713 6.349-5.713h23.155c3.506 0 6.348 2.558 6.348 5.713" fill="#fff"/>
   <path d="m869.07 1036c0 1.87-2.103 3.39-4.697 3.39h-21.433c-2.594 0-4.697-1.52-4.697-3.39v-59.893c0-1.87 2.103-3.386 4.697-3.386h21.433c2.594 0 4.697 1.516 4.697 3.386v59.893" fill="#c93422"/>
   <path d="m91.402 812.43h-15.661v-43.596h15.661v43.596" fill="#f1461d"/>
   <path d="m737.72 839.8h-176.92v-69.697h176.92v69.697" fill="#c9c7ca"/>
   <path d="m737.72 794.65h-176.92v-24.549h176.92v24.549" fill="#626270"/>
   <path d="m737.72 839.8h-176.92v-21.163h176.92v21.163" fill="#807e8a"/>
   <path d="m670.99 839.8h-10.441v-69.697h10.441v69.697" fill="#3b3842"/>
   <path d="m715.85 839.8h-10.441v-69.697h10.441v69.697" fill="#3b3842"/>
  </g>
  <g fill="#6fb2c6">
   <path d="m140.52 883.11h12.203v249.16h-12.203z"/>
   <path d="m180.04 883.11h12.203v249.16h-12.203z"/>
   <path d="m219.56 883.11h12.203v249.16h-12.203z"/>
   <path d="m259.08 883.11h12.204v249.16h-12.204z"/>
   <path d="m298.6 883.11h12.203v249.16h-12.203z"/>
   <path d="m338.12 883.11h12.203v249.16h-12.203z"/>
   <path d="m377.64 883.11h12.203v249.16h-12.203z"/>
   <path d="m417.17 883.11h12.203v249.16h-12.203z"/>
   <path d="m456.69 883.11h12.204v249.16h-12.204z"/>
   <path d="m496.21 883.11h12.203v249.16h-12.203z"/>
   <path d="m535.73 883.11h12.203v249.16h-12.203z"/>
   <path d="m575.25 883.11h12.203v249.16h-12.203z"/>
   <path d="m614.77 883.11h12.203v249.16h-12.203z"/>
   <path d="m654.3 883.11h12.203v249.16h-12.203z"/>
   <path d="m693.82 883.11h12.203v249.16h-12.203z"/>
   <path d="m733.34 883.11h12.202v249.16h-12.202z"/>
   <path d="m772.86 883.11h12.203v249.16h-12.203z"/>
  </g>
  <g fill="#82c7e0">
   <path d="m136.63 883.11h12.204v249.16h-12.204z"/>
   <path d="m176.16 883.11h12.203v249.16h-12.203z"/>
   <path d="m215.68 883.11h12.203v249.16h-12.203z"/>
   <path d="m255.2 883.11h12.203v249.16h-12.203z"/>
   <path d="m294.72 883.11h12.203v249.16h-12.203z"/>
   <path d="m334.24 883.11h12.204v249.16h-12.204z"/>
   <path d="m373.76 883.11h12.203v249.16h-12.203z"/>
   <path d="m413.28 883.11h12.203v249.16h-12.203z"/>
   <path d="m452.8 883.11h12.203v249.16h-12.203z"/>
   <path d="m492.33 883.11h12.203v249.16h-12.203z"/>
   <path d="m531.85 883.11h12.204v249.16h-12.204z"/>
   <path d="m571.37 883.11h12.203v249.16h-12.203z"/>
   <path d="m610.89 883.11h12.203v249.16h-12.203z"/>
   <path d="m650.41 883.11h12.203v249.16h-12.203z"/>
   <path d="m689.93 883.11h12.203v249.16h-12.203z"/>
   <path d="m729.46 883.11h12.203v249.16h-12.203z"/>
   <path d="m768.98 883.11h12.203v249.16h-12.203z"/>
  </g>
  <g transform="scale(.1)">
   <g clip-path="url(#clipPath184)">
    <path d="m7455.4 11198h234.36v124.7h-234.36z" fill="#8bcee6"/>
   </g>
  </g>
  <g>
   <path d="m745.54 1119.8h-3.882v12.47h3.882v-12.47" fill="#7ec4db"/>
   <path d="m706.02 1119.8h23.436v12.47h-23.436z" fill="#8bcee6"/>
   <path d="m702.14 1119.8h3.8832v12.47h-3.8832z" fill="#7ec4db"/>
   <path d="m689.93 1119.8h-23.435v12.47h23.435v-12.47m-39.521 0h-23.436v12.47h23.436v-12.47m-39.521 0h-23.436v12.47h23.436l-1e-3 -12.47m-39.521 0h-23.436v12.47h23.436v-12.47m-39.522 0h-23.435v12.47h23.435v-12.47m-39.521 0h-23.435v12.47h23.435v-12.47m-39.521 0h-23.436v12.47h23.436v-12.47m-39.522 0h-23.435v12.47h23.435v-12.47m-39.521 0h-23.436v12.47h23.436v-12.47m-39.522 0h-23.435v12.47h23.435v-12.47m-39.521 0h-23.435v12.47h23.435v-12.47m-39.521 0h-23.436v12.47h23.436v-12.47m-39.522 0h-23.435v12.47h23.435v-12.47m-39.521 0h-23.436v12.47h23.436v-12.47" fill="#8bcee6"/>
  </g>
  <g fill="#7ec4db">
   <path d="m152.72 1119.8h-3.883l1e-3 12.47h3.882v-12.47"/>
   <path d="m188.36 1119.8h3.8828v12.47h-3.8828z"/>
   <path d="m227.88 1119.8h3.8832v12.47h-3.8832z"/>
   <path d="m271.28 1119.8h-3.883v12.47h3.883v-12.47"/>
   <path d="m306.92 1119.8h3.8832v12.47h-3.8832z"/>
   <path d="m346.44 1119.8h3.882v12.47h-3.882z"/>
   <path d="m385.96 1119.8h3.8832v12.47h-3.8832z"/>
   <path d="m425.49 1119.8h3.8832v12.47h-3.8832z"/>
   <path d="m465.01 1119.8h3.8828v12.47h-3.8828z"/>
   <path d="m504.53 1119.8h3.8832v12.47h-3.8832z"/>
   <path d="m544.05 1119.8h3.882v12.47h-3.882z"/>
   <path d="m583.57 1119.8h3.8832v12.47h-3.8832z"/>
   <path d="m623.09 1119.8h3.8832v12.47h-3.8832z"/>
   <path d="m662.62 1119.8h3.8832v12.47h-3.8832z"/>
  </g>
  <g fill="#82c7e0">
   <path d="m148.84 1119.8h-12.203v12.47h12.203l1e-3 -12.47"/>
   <path d="m176.16 1119.8h12.203v12.47h-12.203z"/>
   <path d="m215.68 1119.8h12.203v12.47h-12.203z"/>
   <path d="m255.2 1119.8h12.203v12.47h-12.203z"/>
   <path d="m294.72 1119.8h12.203v12.47h-12.203z"/>
   <path d="m346.44 1119.8h-12.204v12.47h12.204v-12.47"/>
   <path d="m373.76 1119.8h12.203v12.47h-12.203z"/>
   <path d="m413.28 1119.8h12.203v12.47h-12.203z"/>
   <path d="m452.8 1119.8h12.203v12.47h-12.203z"/>
   <path d="m492.33 1119.8h12.203v12.47h-12.203z"/>
   <path d="m544.05 1119.8h-12.204v12.47h12.204v-12.47"/>
   <path d="m583.57 1119.8h-12.203v12.47h12.203v-12.47"/>
   <path d="m623.09 1119.8h-12.202l-1e-3 12.47h12.203v-12.47"/>
   <path d="m650.41 1119.8h12.203v12.47h-12.203z"/>
   <path d="m689.93 1119.8h12.203v12.47h-12.203z"/>
   <path d="m729.46 1119.8h12.203v12.47h-12.203z"/>
   <path d="m781.18 1119.8h-12.203v12.47h12.203v-12.47"/>
   <path d="m121.5 1147.1c-1.36 0-2.463-1.2-2.463-2.68v-6.73c0-1.48 1.103-2.69 2.463-2.69h2.873c1.36 0 2.463 1.21 2.463 2.69v6.73c0 1.48-1.103 2.68-2.463 2.68h-2.873"/>
   <path d="m121.5 881.68c-1.36 0-2.463-1.204-2.463-2.689v-6.723c0-1.485 1.103-2.689 2.463-2.689h2.873c1.36 0 2.463 1.204 2.463 2.689v6.723c0 1.485-1.103 2.689-2.463 2.689h-2.873"/>
   <path d="m795.14 1147.1c-1.36 0-2.463-1.2-2.463-2.68v-6.73c0-1.48 1.103-2.69 2.463-2.69h2.873c1.36 0 2.463 1.21 2.463 2.69v6.73c0 1.48-1.103 2.68-2.463 2.68h-2.873"/>
   <path d="m795.14 881.68c-1.36 0-2.463-1.204-2.463-2.689v-6.723c0-1.485 1.103-2.689 2.463-2.689h2.873c1.36 0 2.463 1.204 2.463 2.689v6.723c0 1.485-1.103 2.689-2.463 2.689h-2.873"/>
  </g>
 </g>
</svg>
